# xmcd CD database file
#
# Track frame offsets:
#	183
#	25530
#	44510
#	104493
#	128633
#	147825
#	171008
#	185180
#
# Disc length: 2925 seconds
#
# Revision: 3
# Processed by: cddbd v1.5.2PL0 Copyright (c) Steve Scherf et al.
# Submitted via: CDex 1.70beta2
#
DISCID=6b0b6b08
DTITLE=Pat Metheny, Ornette Coleman - Song X
DYEAR=1986
DGENRE=Jazz
TTITLE0=Song X
TTITLE1=Mob Job
TTITLE2=Endangered Species
TTITLE3=Video games
TTITLE4=Kathelin Gray
TTITLE5=Trigonometry
TTITLE6=Song X Duo
TTITLE7=Long Time No See
EXTD=Pat Metheny guitar, guitar synth - Ornette Coleman alto sax, violin (2);\nCharlie Haden bass - YEAR: 1986
EXTT0=
EXTT1=
EXTT2=
EXTT3=
EXTT4=
EXTT5=
EXTT6=
EXTT7=
PLAYORDER=
